<svg width="21" height="20" viewBox="0 0 21 20" fill="none" xmlns="http://www.w3.org/2000/svg">
<path fill-rule="evenodd" clip-rule="evenodd" d="M6.49505 4.02642C6.83001 3.41765 7.1944 3.01069 7.73511 2.79548C8.72595 2.40149 12.2746 2.40149 13.2647 2.79556C13.8051 3.01065 14.1696 3.41754 14.5048 4.02619L14.8817 4.74881C14.8903 4.76313 14.8982 4.77572 14.9053 4.78656L14.9373 4.83031C15.109 5.0174 15.3964 5.13042 15.586 5.13042C17.3794 5.13042 18.8335 6.58425 18.8335 8.37708V13.2063C18.8335 15.4931 16.9787 17.3479 14.6919 17.3479H6.30854C4.02112 17.3479 2.16687 15.4934 2.16687 13.2063V8.37708C2.16687 6.58425 3.62102 5.13042 5.41437 5.13042C5.60335 5.13042 5.8911 5.01723 6.06307 4.83031C6.06651 4.82657 6.07099 4.82099 6.07641 4.81361L6.11927 4.74788L6.49505 4.02642ZM13.4099 4.62923C13.2016 4.25104 13.0134 4.04091 12.8024 3.95694L12.703 3.92389C11.8453 3.68148 8.86221 3.6925 8.19716 3.95694C7.98632 4.04087 7.79827 4.25088 7.59022 4.629L7.2695 5.24908L7.19056 5.39194C7.12467 5.50155 7.05876 5.59407 6.98349 5.67608C6.56144 6.13483 5.93708 6.38042 5.41437 6.38042L5.27762 6.38502C4.23833 6.4553 3.41687 7.3206 3.41687 8.37708V13.2063C3.41687 14.803 4.71153 16.0979 6.30854 16.0979H14.6919C16.2884 16.0979 17.5835 14.8027 17.5835 13.2063V8.37708C17.5835 7.27466 16.6891 6.38042 15.586 6.38042L15.4409 6.37435C14.9505 6.33399 14.3996 6.09305 14.0164 5.67552C13.9421 5.59461 13.8766 5.50274 13.8111 5.39406C13.8017 5.37847 13.79 5.35794 13.7766 5.33366L13.6798 5.1522L13.4099 4.62923Z" fill="#1B5E37"/>
<path d="M15.0872 7.08398C15.5474 7.08398 15.9205 7.45708 15.9205 7.91732C15.9205 8.34468 15.5988 8.69691 15.1844 8.74504L15.0872 8.75065C14.6194 8.75065 14.2463 8.37756 14.2463 7.91732C14.2463 7.48995 14.568 7.13773 14.9825 7.08959L15.0872 7.08398Z" fill="#1B5E37"/>
<path fill-rule="evenodd" clip-rule="evenodd" d="M7.22583 10.9402C7.22583 9.13167 8.69149 7.66602 10.5 7.66602C12.3085 7.66602 13.7742 9.13167 13.7742 10.9402C13.7742 12.7487 12.3085 14.2143 10.5 14.2143C8.69149 14.2143 7.22583 12.7487 7.22583 10.9402ZM12.5242 10.9402C12.5242 9.82203 11.6182 8.91602 10.5 8.91602C9.38184 8.91602 8.47583 9.82203 8.47583 10.9402C8.47583 12.0583 9.38184 12.9643 10.5 12.9643C11.6182 12.9643 12.5242 12.0583 12.5242 10.9402Z" fill="#1B5E37"/>
</svg>
