<svg width="17" height="16" viewBox="0 0 17 16" fill="none" xmlns="http://www.w3.org/2000/svg">
<path d="M8.49992 14.4336C8.29325 14.4336 8.09325 14.4069 7.92659 14.3469C5.37992 13.4736 1.33325 10.3736 1.33325 5.79356C1.33325 3.46023 3.21992 1.56689 5.53992 1.56689C6.66659 1.56689 7.71992 2.00689 8.49992 2.79356C9.27992 2.00689 10.3333 1.56689 11.4599 1.56689C13.7799 1.56689 15.6666 3.46689 15.6666 5.79356C15.6666 10.3802 11.6199 13.4736 9.07325 14.3469C8.90659 14.4069 8.70659 14.4336 8.49992 14.4336ZM5.53992 2.56689C3.77325 2.56689 2.33325 4.01356 2.33325 5.79356C2.33325 10.3469 6.71325 12.8802 8.25325 13.4069C8.37325 13.4469 8.63325 13.4469 8.75325 13.4069C10.2866 12.8802 14.6733 10.3536 14.6733 5.79356C14.6733 4.01356 13.2333 2.56689 11.4666 2.56689C10.4533 2.56689 9.51325 3.04023 8.90659 3.86023C8.71992 4.11356 8.29325 4.11356 8.10659 3.86023C7.48659 3.03356 6.55325 2.56689 5.53992 2.56689Z" fill="#292D32"/>
</svg>
