<svg width="130" height="25" viewBox="0 0 130 25" fill="none" xmlns="http://www.w3.org/2000/svg">
<path d="M6.69547 24.118C5.43814 24.118 4.30347 23.8803 3.29147 23.405C2.27947 22.945 1.48214 22.301 0.899469 21.473C0.316802 20.6603 0.0254688 19.7327 0.0254688 18.69C0.0254688 18.368 0.0484688 17.9463 0.0944688 17.425C0.155802 16.9037 0.224802 16.3287 0.301469 15.7C0.393469 15.0713 0.485469 14.4197 0.577469 13.745C0.684802 13.0703 0.784469 12.434 0.876469 11.836L3.91247 12.273C3.75914 13.285 3.62114 14.2127 3.49847 15.056C3.3758 15.8993 3.27614 16.62 3.19947 17.218C3.13814 17.816 3.10747 18.276 3.10747 18.598C3.10747 19.2113 3.24547 19.725 3.52147 20.139C3.8128 20.5683 4.2268 20.8903 4.76347 21.105C5.30014 21.335 5.94414 21.45 6.69547 21.45H12.0775C13.1968 21.45 14.0325 21.22 14.5845 20.76C15.1365 20.3153 15.4125 19.6713 15.4125 18.828V8.455L16.1715 9.122H13.2735C12.5988 9.122 12.0698 9.20633 11.6865 9.375C11.3031 9.54367 11.0348 9.858 10.8815 10.318C10.7281 10.7627 10.6515 11.399 10.6515 12.227C10.6515 13.1317 10.7281 13.8063 10.8815 14.251C11.0348 14.6803 11.3031 14.9717 11.6865 15.125C12.0698 15.263 12.5988 15.332 13.2735 15.332H15.4125V18H13.2735C11.9701 18 10.8968 17.8007 10.0535 17.402C9.21014 16.988 8.58147 16.3517 8.16747 15.493C7.7688 14.6343 7.56947 13.5457 7.56947 12.227C7.56947 10.9697 7.7688 9.91167 8.16747 9.053C8.58147 8.19433 9.21014 7.55033 10.0535 7.121C10.8968 6.67633 11.9701 6.454 13.2735 6.454H18.4715V18.828C18.4715 19.9167 18.1878 20.852 17.6205 21.634C17.0685 22.4313 16.3095 23.0447 15.3435 23.474C14.3928 23.9033 13.3041 24.118 12.0775 24.118H6.69547ZM10.3295 5.074V2.452H13.4115V5.074H10.3295ZM13.4805 5.074V2.452H16.5625V5.074H13.4805ZM31.906 18V15.332H34.321V18H31.906ZM25.696 23.704C25.1287 23.704 24.5307 23.658 23.902 23.566C23.2887 23.4893 22.6293 23.382 21.924 23.244L22.384 20.783C23.1507 20.875 23.8023 20.944 24.339 20.99C24.8757 21.036 25.328 21.059 25.696 21.059C26.8 21.059 27.5973 20.8597 28.088 20.461C28.5787 20.0623 28.824 19.4643 28.824 18.667V8.57L29.583 9.122H26.708C26.0793 9.122 25.5733 9.19867 25.19 9.352C24.8067 9.49 24.523 9.789 24.339 10.249C24.1703 10.6937 24.086 11.376 24.086 12.296C24.086 13.17 24.1627 13.8293 24.316 14.274C24.4847 14.7033 24.7607 14.987 25.144 15.125C25.5273 15.263 26.0487 15.332 26.708 15.332H28.824V18H26.708C25.4047 18 24.3313 17.793 23.488 17.379C22.6447 16.965 22.016 16.3363 21.602 15.493C21.2033 14.6497 21.004 13.584 21.004 12.296C21.004 11.008 21.2033 9.93467 21.602 9.076C22.016 8.202 22.6447 7.55033 23.488 7.121C24.3313 6.67633 25.4047 6.454 26.708 6.454H31.906V18.667C31.906 19.7097 31.6453 20.6067 31.124 21.358C30.618 22.1247 29.8973 22.7073 28.962 23.106C28.042 23.5047 26.9533 23.704 25.696 23.704ZM34.321 18V15.332C34.505 15.332 34.6277 15.4547 34.689 15.7C34.7503 15.93 34.781 16.252 34.781 16.666C34.781 17.0647 34.7503 17.3867 34.689 17.632C34.6277 17.8773 34.505 18 34.321 18ZM53.6212 18V15.332H56.0592V18H53.6212ZM47.8482 18C47.2196 18 46.5909 17.885 45.9622 17.655C45.3489 17.4097 44.7816 17.0493 44.2602 16.574L46.1462 14.619C46.4529 14.8643 46.7366 15.0483 46.9972 15.171C47.2732 15.2783 47.5569 15.332 47.8482 15.332H52.1492L50.5622 16.781V11.675C50.5622 11.4297 50.5316 11.0617 50.4702 10.571C50.4242 10.065 50.3476 9.49767 50.2402 8.869C50.1482 8.225 50.0332 7.57333 49.8952 6.914L52.9312 6.454C53.0386 7.006 53.1382 7.627 53.2302 8.317C53.3376 8.99167 53.4296 9.63567 53.5062 10.249C53.5829 10.847 53.6212 11.3223 53.6212 11.675V18H47.8482ZM34.3242 18V15.332H37.6822L36.9922 16.045V8.8H40.0742V18H34.3242ZM40.0742 18V15.332H41.9372C42.4279 15.332 42.8036 15.263 43.0642 15.125C43.3249 14.9717 43.5012 14.6727 43.5932 14.228C43.7006 13.768 43.7542 13.0857 43.7542 12.181V7.65H46.8362V12.181C46.8362 13.5457 46.6599 14.6573 46.3072 15.516C45.9699 16.3747 45.4409 17.0033 44.7202 17.402C43.9996 17.8007 43.0719 18 41.9372 18H40.0742ZM34.3242 18C34.1402 18 34.0176 17.8773 33.9562 17.632C33.8949 17.3867 33.8642 17.0647 33.8642 16.666C33.8642 16.252 33.8949 15.93 33.9562 15.7C34.0176 15.4547 34.1402 15.332 34.3242 15.332V18ZM56.0592 18V15.332C56.2432 15.332 56.3659 15.4547 56.4272 15.7C56.4886 15.93 56.5192 16.252 56.5192 16.666C56.5192 17.0647 56.4886 17.3867 56.4272 17.632C56.3659 17.8773 56.2432 18 56.0592 18ZM56.0664 18V15.332H61.5174L59.7234 16.827V6.454H62.7824V18H56.0664ZM56.0664 18C55.8824 18 55.7597 17.8773 55.6984 17.632C55.6371 17.3867 55.6064 17.0647 55.6064 16.666C55.6064 16.252 55.6371 15.93 55.6984 15.7C55.7597 15.4547 55.8824 15.332 56.0664 15.332V18ZM56.9864 5.074V2.452H60.0684V5.074H56.9864ZM60.1374 5.074V2.452H63.2194V5.074H60.1374ZM70.0788 23.704C69.5115 23.704 68.9135 23.658 68.2848 23.566C67.6715 23.4893 67.0121 23.382 66.3068 23.244L66.7668 20.783C67.5335 20.875 68.1851 20.944 68.7218 20.99C69.2585 21.036 69.7108 21.059 70.0788 21.059C71.1828 21.059 71.9801 20.8597 72.4708 20.461C72.9615 20.0623 73.2068 19.4643 73.2068 18.667V8.57L73.9658 9.122H71.0908C70.4621 9.122 69.9561 9.19867 69.5728 9.352C69.1895 9.49 68.9058 9.789 68.7218 10.249C68.5531 10.6937 68.4688 11.376 68.4688 12.296C68.4688 13.17 68.5455 13.8293 68.6988 14.274C68.8675 14.7033 69.1435 14.987 69.5268 15.125C69.9101 15.263 70.4315 15.332 71.0908 15.332H73.2068V18H71.0908C69.7875 18 68.7141 17.793 67.8708 17.379C67.0275 16.965 66.3988 16.3363 65.9848 15.493C65.5861 14.6497 65.3868 13.584 65.3868 12.296C65.3868 11.008 65.5861 9.93467 65.9848 9.076C66.3988 8.202 67.0275 7.55033 67.8708 7.121C68.7141 6.67633 69.7875 6.454 71.0908 6.454H76.2888V18.667C76.2888 19.7097 76.0281 20.6067 75.5068 21.358C75.0008 22.1247 74.2801 22.7073 73.3448 23.106C72.4248 23.5047 71.3361 23.704 70.0788 23.704ZM100.756 18V15.332H103.171V18H100.756ZM91.3718 18C88.9031 18 87.0248 17.5247 85.7368 16.574C84.4488 15.608 83.8048 14.182 83.8048 12.296C83.8048 11.928 83.8278 11.5447 83.8738 11.146C83.9198 10.732 83.9734 10.341 84.0348 9.973C84.1114 9.58967 84.1804 9.25233 84.2418 8.961C84.3031 8.66967 84.3491 8.455 84.3798 8.317L87.3698 8.892C87.3238 9.13733 87.2624 9.45167 87.1858 9.835C87.1091 10.2183 87.0401 10.6247 86.9788 11.054C86.9174 11.468 86.8868 11.8667 86.8868 12.25C86.8868 13.0473 87.0554 13.676 87.3928 14.136C87.7301 14.5807 88.2438 14.895 88.9338 15.079C89.6238 15.2477 90.4901 15.332 91.5328 15.332H97.6738V6.454H100.756V18H91.3718ZM103.171 18V15.332C103.355 15.332 103.477 15.4547 103.539 15.7C103.6 15.93 103.631 16.252 103.631 16.666C103.631 17.0647 103.6 17.3867 103.539 17.632C103.477 17.8773 103.355 18 103.171 18ZM90.9578 2.452V0.151999H93.6258V2.452H90.9578ZM88.7268 5.971V3.349H91.6938V5.971H88.7268ZM92.9128 5.971V3.349H95.8798V5.971H92.9128ZM115.081 18V15.332H117.519V18H115.081ZM103.167 18V15.332H113.057L112.022 16.183V11.928C112.022 11.008 111.731 10.3103 111.148 9.835C110.581 9.35967 109.676 9.122 108.434 9.122C108.081 9.122 107.598 9.15267 106.985 9.214C106.372 9.26 105.705 9.33667 104.984 9.444L104.685 7.006C105.344 6.85267 106.011 6.72233 106.686 6.615C107.376 6.50767 108.051 6.454 108.71 6.454C109.967 6.454 111.071 6.67633 112.022 7.121C112.973 7.55033 113.716 8.17133 114.253 8.984C114.805 9.79667 115.081 10.778 115.081 11.928V18H103.167ZM103.167 18C102.983 18 102.86 17.8773 102.799 17.632C102.738 17.3867 102.707 17.0647 102.707 16.666C102.707 16.252 102.738 15.93 102.799 15.7C102.86 15.4547 102.983 15.332 103.167 15.332V18ZM117.519 18V15.332C117.688 15.332 117.803 15.4547 117.864 15.7C117.941 15.93 117.979 16.252 117.979 16.666C117.979 17.0647 117.941 17.3867 117.864 17.632C117.803 17.8773 117.688 18 117.519 18ZM117.52 18V15.332H121.729L119.935 16.827V6.454H123.017V18H117.52ZM117.52 18C117.336 18 117.213 17.8773 117.152 17.632C117.09 17.3867 117.06 17.0647 117.06 16.666C117.06 16.252 117.09 15.93 117.152 15.7C117.213 15.4547 117.336 15.332 117.52 15.332V18ZM119.935 22.899V20.277H123.017V22.899H119.935ZM126.755 18V1.739H129.814V18H126.755Z" fill="#0C0D0D"/>
</svg>
