<svg width="219" height="28" viewBox="0 0 219 28" fill="none" xmlns="http://www.w3.org/2000/svg">
<path d="M0.0256602 16.4981V0.789138H10.1687V3.45714H3.19966V8.19514H8.90366V10.8631H3.19966V16.4981H0.0256602ZM11.9032 16.4981V4.95214H14.9622V6.30914C15.2229 6.1098 15.5449 5.9028 15.9282 5.68814C16.3115 5.45814 16.7255 5.25114 17.1702 5.06714C17.6302 4.8678 18.0672 4.73747 18.4812 4.67614V7.64314C18.0825 7.70447 17.6609 7.8118 17.2162 7.96514C16.7715 8.10314 16.3499 8.25647 15.9512 8.42514C15.5679 8.5938 15.2382 8.74714 14.9622 8.88514V16.4981H11.9032ZM23.759 16.7511C22.7623 16.7511 21.988 16.5441 21.436 16.1301C20.8993 15.7008 20.516 15.0568 20.286 14.1981C20.0713 13.3395 19.964 12.2585 19.964 10.9551V4.95214H23.023V10.8171C23.023 11.6298 23.0613 12.2738 23.138 12.7491C23.23 13.2245 23.4063 13.5618 23.667 13.7611C23.9276 13.9605 24.3033 14.0601 24.794 14.0601C25.2693 14.0601 25.714 13.9988 26.128 13.8761C26.542 13.7535 26.8716 13.6308 27.117 13.5081V4.95214H30.176V16.4981H27.14V15.7851C26.6186 16.0765 26.0973 16.3141 25.576 16.4981C25.07 16.6668 24.4643 16.7511 23.759 16.7511ZM32.702 16.4981V4.95214H35.761V16.4981H32.702ZM32.702 3.11214V0.490138H35.784V3.11214H32.702ZM42.3652 16.7741C41.5219 16.7741 40.8396 16.6515 40.3182 16.4061C39.7969 16.1608 39.4212 15.7391 39.1912 15.1411C38.9766 14.5278 38.8692 13.6768 38.8692 12.5881V7.50514H37.5122V4.95214H38.8692V1.89314H41.9282V4.95214H44.8722V7.50514H41.9282V11.7831C41.9282 12.3811 41.9512 12.8488 41.9972 13.1861C42.0586 13.5235 42.1812 13.7611 42.3652 13.8991C42.5492 14.0371 42.8329 14.1061 43.2162 14.1061C43.3236 14.1061 43.4846 14.0985 43.6992 14.0831C43.9139 14.0678 44.1286 14.0525 44.3432 14.0371C44.5579 14.0218 44.7342 14.0065 44.8722 13.9911L44.9642 16.4521C44.5962 16.5135 44.1516 16.5825 43.6302 16.6591C43.1242 16.7358 42.7026 16.7741 42.3652 16.7741Z" fill="#1B5E37"/>
<path d="M46.7669 16.4981V0.789138H49.9409V7.34414H56.0359V0.789138H59.2099V16.4981H56.0359V10.0121H49.9409V16.4981H46.7669ZM68.0187 16.7511C66.7307 16.7511 65.6344 16.5825 64.7297 16.2451C63.8404 15.9078 63.1657 15.3481 62.7057 14.5661C62.2457 13.7688 62.0157 12.7108 62.0157 11.3921V0.789138H65.1897V11.5071C65.1897 12.4118 65.4274 13.0635 65.9027 13.4621C66.3934 13.8608 67.0987 14.0601 68.0187 14.0601C68.9847 14.0601 69.713 13.8608 70.2037 13.4621C70.6944 13.0635 70.9397 12.4118 70.9397 11.5071V0.789138H74.1137V11.3461C74.1137 12.6648 73.876 13.7228 73.4007 14.5201C72.9407 15.3175 72.2584 15.8925 71.3537 16.2451C70.4644 16.5825 69.3527 16.7511 68.0187 16.7511ZM76.887 16.4981V0.789138H83.143C84.1857 0.789138 85.0827 0.919471 85.834 1.18014C86.5853 1.4408 87.168 1.86247 87.582 2.44514C88.0113 3.01247 88.226 3.77914 88.226 4.74514C88.226 5.40447 88.157 5.96414 88.019 6.42414C87.8963 6.8688 87.697 7.25214 87.421 7.57414C87.1603 7.8808 86.8153 8.16447 86.386 8.42514C86.846 8.5938 87.2447 8.8238 87.582 9.11514C87.9347 9.39114 88.203 9.7668 88.387 10.2421C88.571 10.7021 88.663 11.3155 88.663 12.0821C88.663 12.9255 88.5327 13.6308 88.272 14.1981C88.0113 14.7655 87.6357 15.2178 87.145 15.5551C86.6697 15.8925 86.11 16.1378 85.466 16.2911C84.822 16.4291 84.1167 16.4981 83.35 16.4981H76.887ZM80.061 14.1521H83.12C83.6567 14.1521 84.1013 14.0908 84.454 13.9681C84.822 13.8301 85.098 13.5925 85.282 13.2551C85.4813 12.9178 85.581 12.4501 85.581 11.8521C85.581 11.3921 85.5043 11.0165 85.351 10.7251C85.1977 10.4338 84.9983 10.2191 84.753 10.0811C84.5077 9.9278 84.2317 9.82047 83.925 9.75914C83.6337 9.6978 83.3423 9.66714 83.051 9.66714H80.061V14.1521ZM80.061 7.41314H83.028C83.81 7.41314 84.3697 7.22914 84.707 6.86114C85.0597 6.49314 85.236 5.93347 85.236 5.18214C85.236 4.46147 85.0443 3.94014 84.661 3.61814C84.293 3.29614 83.7103 3.13514 82.913 3.13514H80.061V7.41314Z" fill="#F4A91F"/>
<path d="M102.465 22.2021C101.468 22.2021 100.54 22.0565 99.6818 21.7651C98.8385 21.4891 98.1025 21.0981 97.4738 20.5921C96.8451 20.1015 96.3468 19.5111 95.9788 18.8211C95.6261 18.1465 95.4498 17.4105 95.4498 16.6131C95.4498 16.3218 95.4728 15.9461 95.5188 15.4861C95.5648 15.0261 95.6261 14.4971 95.7028 13.8991C95.7948 13.3011 95.8945 12.6648 96.0018 11.9901L99.0378 12.4041C98.8845 13.3701 98.7618 14.2288 98.6698 14.9801C98.5778 15.7315 98.5318 16.2605 98.5318 16.5671C98.5318 17.1498 98.6928 17.6635 99.0148 18.1081C99.3368 18.5528 99.7891 18.8978 100.372 19.1431C100.97 19.4038 101.667 19.5341 102.465 19.5341H108.974C109.97 19.5341 110.714 19.2811 111.205 18.7751C111.695 18.2691 111.941 17.5331 111.941 16.5671V15.6931H115V16.5671C115 17.6711 114.754 18.6448 114.264 19.4881C113.773 20.3315 113.075 20.9908 112.171 21.4661C111.281 21.9568 110.216 22.2021 108.974 22.2021H102.465ZM110.929 16.4981C110.223 16.4981 109.541 16.4215 108.882 16.2681C108.238 16.1148 107.624 15.8388 107.042 15.4401L108.79 13.2321C109.035 13.4008 109.25 13.5311 109.434 13.6231C109.633 13.6998 109.848 13.7535 110.078 13.7841C110.323 13.8148 110.607 13.8301 110.929 13.8301H116.012V16.4981H110.929ZM116.012 16.4981V13.8301C116.18 13.8301 116.295 13.9528 116.357 14.1981C116.433 14.4281 116.472 14.7501 116.472 15.1641C116.472 15.5628 116.433 15.8848 116.357 16.1301C116.295 16.3755 116.18 16.4981 116.012 16.4981ZM102.074 27.0321V24.4101H105.156V27.0321H102.074ZM105.225 27.0321V24.4101H108.307V27.0321H105.225ZM116.002 16.4981V13.8301H126.743L125.8 14.6351V6.95314L126.582 7.62014H123.684C123.01 7.62014 122.481 7.70447 122.097 7.87314C121.714 8.0418 121.446 8.35614 121.292 8.81614C121.139 9.2608 121.062 9.89714 121.062 10.7251C121.062 11.6298 121.139 12.3045 121.292 12.7491C121.446 13.1785 121.714 13.4698 122.097 13.6231C122.481 13.7611 123.01 13.8301 123.684 13.8301V16.2221C122.381 16.2221 121.308 16.0381 120.464 15.6701C119.621 15.3021 118.992 14.7195 118.578 13.9221C118.18 13.1095 117.98 12.0438 117.98 10.7251C117.98 9.4678 118.18 8.4098 118.578 7.55114C118.992 6.69247 119.621 6.04847 120.464 5.61914C121.308 5.17447 122.381 4.95214 123.684 4.95214H128.882V16.4981H116.002ZM116.002 16.4981C115.818 16.4981 115.696 16.3755 115.634 16.1301C115.573 15.8848 115.542 15.5628 115.542 15.1641C115.542 14.7501 115.573 14.4281 115.634 14.1981C115.696 13.9528 115.818 13.8301 116.002 13.8301V16.4981ZM122.465 2.83614V0.214138H125.547V2.83614H122.465ZM153.37 16.4981V13.8301H155.785V16.4981H153.37ZM143.986 16.4981C141.517 16.4981 139.639 16.0228 138.351 15.0721C137.063 14.1061 136.419 12.6801 136.419 10.7941C136.419 10.4261 136.442 10.0428 136.488 9.64414C136.534 9.23014 136.587 8.83914 136.649 8.47114C136.725 8.0878 136.794 7.75047 136.856 7.45914C136.917 7.1678 136.963 6.95314 136.994 6.81514L139.984 7.39014C139.938 7.63547 139.876 7.9498 139.8 8.33314C139.723 8.71647 139.654 9.1228 139.593 9.55214C139.531 9.96614 139.501 10.3648 139.501 10.7481C139.501 11.5455 139.669 12.1741 140.007 12.6341C140.344 13.0788 140.858 13.3931 141.548 13.5771C142.238 13.7458 143.104 13.8301 144.147 13.8301H152.082L150.288 15.3251V0.237138H153.37V16.4981H143.986ZM155.785 16.4981V13.8301C155.969 13.8301 156.091 13.9528 156.153 14.1981C156.214 14.4281 156.245 14.7501 156.245 15.1641C156.245 15.5628 156.214 15.8848 156.153 16.1301C156.091 16.3755 155.969 16.4981 155.785 16.4981ZM143.503 7.82714C143.211 7.47447 142.989 7.13714 142.836 6.81514C142.682 6.49314 142.606 6.14814 142.606 5.78014C142.606 5.2588 142.744 4.79114 143.02 4.37714C143.296 3.9478 143.656 3.61814 144.101 3.38814C144.545 3.1428 145.036 3.02014 145.573 3.02014C145.864 3.02014 146.163 3.05847 146.47 3.13514C146.776 3.2118 147.037 3.3268 147.252 3.48014L146.47 4.88314C146.332 4.80647 146.194 4.76047 146.056 4.74514C145.933 4.71447 145.803 4.69914 145.665 4.69914C145.297 4.69914 145.013 4.7988 144.814 4.99814C144.614 5.18214 144.515 5.43514 144.515 5.75714C144.515 5.94114 144.553 6.11747 144.63 6.28614C144.706 6.4548 144.821 6.6388 144.975 6.83814L143.503 7.82714ZM142.1 8.01114V6.33214H147.666V8.01114H142.1ZM155.781 16.4981V13.8301H159.99L158.196 15.3251V4.95214H161.278V16.4981H155.781ZM155.781 16.4981C155.597 16.4981 155.474 16.3755 155.413 16.1301C155.351 15.8848 155.321 15.5628 155.321 15.1641C155.321 14.7501 155.351 14.4281 155.413 14.1981C155.474 13.9528 155.597 13.8301 155.781 13.8301V16.4981ZM158.196 21.3971V18.7751H161.278V21.3971H158.196ZM173.084 16.4981V13.8301H175.706V16.4981H173.084ZM170.025 16.4981V0.237138H173.084V16.4981H170.025ZM175.706 16.4981V13.8301C175.89 13.8301 176.012 13.9528 176.074 14.1981C176.135 14.4281 176.166 14.7501 176.166 15.1641C176.166 15.5628 176.135 15.8848 176.074 16.1301C176.012 16.3755 175.89 16.4981 175.706 16.4981ZM177.107 3.60714V2.57214H182.213V3.60714H177.107ZM177.107 1.30714V0.272137H182.213V1.30714H177.107ZM181.201 16.4981V13.8301H183.616V16.4981H181.201ZM175.704 16.4981V13.8301H179.913L178.119 15.3251V4.95214H181.201V16.4981H175.704ZM175.704 16.4981C175.52 16.4981 175.397 16.3755 175.336 16.1301C175.274 15.8848 175.244 15.5628 175.244 15.1641C175.244 14.7501 175.274 14.4281 175.336 14.1981C175.397 13.9528 175.52 13.8301 175.704 13.8301V16.4981ZM183.616 16.4981V13.8301C183.8 13.8301 183.922 13.9528 183.984 14.1981C184.045 14.4281 184.076 14.7501 184.076 15.1641C184.076 15.5628 184.045 15.8848 183.984 16.1301C183.922 16.3755 183.8 16.4981 183.616 16.4981ZM178.119 21.3971V18.7751H181.201V21.3971H178.119ZM183.61 16.4981V13.8301H193.5L192.465 14.6811V10.4261C192.465 9.50614 192.174 8.80847 191.591 8.33314C191.024 7.8578 190.119 7.62014 188.877 7.62014C188.524 7.62014 188.041 7.6508 187.428 7.71214C186.815 7.75814 186.148 7.8348 185.427 7.94214L185.128 5.50414C185.787 5.3508 186.454 5.22047 187.129 5.11314C187.819 5.0058 188.494 4.95214 189.153 4.95214C190.41 4.95214 191.514 5.17447 192.465 5.61914C193.416 6.04847 194.159 6.66947 194.696 7.48214C195.248 8.2948 195.524 9.27614 195.524 10.4261V16.4981H183.61ZM183.61 16.4981C183.426 16.4981 183.303 16.3755 183.242 16.1301C183.181 15.8848 183.15 15.5628 183.15 15.1641C183.15 14.7501 183.181 14.4281 183.242 14.1981C183.303 13.9528 183.426 13.8301 183.61 13.8301V16.4981ZM202.243 16.4981V13.8301H205.21V16.4981H202.243ZM197.781 22.2021C197.581 22.2021 197.367 22.1945 197.137 22.1791C196.907 22.1638 196.669 22.1408 196.424 22.1101L196.539 19.4881C196.784 19.5035 197.014 19.5188 197.229 19.5341C197.459 19.5495 197.627 19.5571 197.735 19.5571C198.333 19.5571 198.808 19.3195 199.161 18.8441C199.529 18.3688 199.713 17.7018 199.713 16.8431V4.95214H202.795V16.8431C202.795 17.8858 202.58 18.8135 202.151 19.6261C201.737 20.4388 201.154 21.0675 200.403 21.5121C199.651 21.9721 198.777 22.2021 197.781 22.2021ZM205.21 16.4981V13.8301C205.394 13.8301 205.516 13.9528 205.578 14.1981C205.639 14.4281 205.67 14.7501 205.67 15.1641C205.67 15.5628 205.639 15.8848 205.578 16.1301C205.516 16.3755 205.394 16.4981 205.21 16.4981ZM205.217 16.4981V13.8301H217.154L215.751 15.0261V10.7941C215.751 9.96614 215.659 9.32214 215.475 8.86214C215.291 8.3868 214.969 8.05714 214.509 7.87314C214.065 7.6738 213.444 7.57414 212.646 7.57414C212.018 7.57414 211.397 7.62014 210.783 7.71214C210.185 7.7888 209.718 7.89614 209.38 8.03414L211.289 6.24014C211.197 6.5928 211.105 7.03747 211.013 7.57414C210.937 8.1108 210.868 8.6858 210.806 9.29914C210.745 9.89714 210.714 10.4875 210.714 11.0701C210.714 11.6068 210.737 12.1665 210.783 12.7491C210.845 13.3318 210.906 13.8455 210.967 14.2901C211.044 14.7348 211.105 15.0415 211.151 15.2101L208.23 16.0151C208.169 15.8005 208.092 15.4478 208 14.9571C207.908 14.4665 207.824 13.8838 207.747 13.2091C207.686 12.5345 207.655 11.8215 207.655 11.0701C207.655 10.3035 207.694 9.56747 207.77 8.86214C207.847 8.14147 207.931 7.49747 208.023 6.93014C208.131 6.34747 208.23 5.8798 208.322 5.52714C208.69 5.38914 209.265 5.25114 210.047 5.11314C210.829 4.97514 211.696 4.90614 212.646 4.90614C214.026 4.90614 215.169 5.0978 216.073 5.48114C216.993 5.86447 217.676 6.48547 218.12 7.34414C218.58 8.2028 218.81 9.36047 218.81 10.8171V16.4981H205.217ZM205.217 16.4981C205.033 16.4981 204.911 16.3755 204.849 16.1301C204.788 15.8848 204.757 15.5628 204.757 15.1641C204.757 14.7501 204.788 14.4281 204.849 14.1981C204.911 13.9528 205.033 13.8301 205.217 13.8301V16.4981Z" fill="#0C0D0D"/>
</svg>
