<svg width="8" height="16" viewBox="0 0 8 16" fill="none" xmlns="http://www.w3.org/2000/svg">
<path d="M7.20373 15.2253C7.36998 15.2253 7.53623 15.1669 7.66748 15.0419C7.92123 14.8003 7.92123 14.4003 7.66748 14.1586L1.96248 8.72526C1.54248 8.32526 1.54248 7.67526 1.96248 7.27526L7.66748 1.84193C7.92123 1.60026 7.92123 1.20026 7.66748 0.958594C7.41373 0.716927 6.99373 0.716927 6.73998 0.958594L1.03498 6.39193C0.588726 6.81693 0.334976 7.39193 0.334976 8.00026C0.334976 8.60859 0.579976 9.18359 1.03498 9.60859L6.73998 15.0419C6.87123 15.1586 7.03748 15.2253 7.20373 15.2253Z" fill="#0C0D0D"/>
</svg>
